<?xml version="1.0" encoding="utf-8"?>
<!-- Generator: Adobe Illustrator 27.5.0, SVG Export Plug-In . SVG Version: 6.00 Build 0)  -->
<svg version="1.1" id="Layer_1" xmlns="http://www.w3.org/2000/svg" xmlns:xlink="http://www.w3.org/1999/xlink" x="0px" y="0px"
	 viewBox="0 0 396 288" style="enable-background:new 0 0 396 288;" xml:space="preserve">
<g>
	<g>
		<defs>
			<rect id="SVGID_1_" width="396" height="288"/>
		</defs>
		<use xlink:href="#SVGID_1_"  style="overflow:visible;fill:#FFFFFF;"/>
		<clipPath id="SVGID_00000085247970010794991070000017305341301214691737_">
			<use xlink:href="#SVGID_1_"  style="overflow:visible;"/>
		</clipPath>
		<g style="clip-path:url(#SVGID_00000085247970010794991070000017305341301214691737_);">
			<g>
				
					<radialGradient id="SVGID_00000150087656850582533870000008349833070692253612_" cx="112.7768" cy="27.5276" r="420.9283" gradientTransform="matrix(1.1183 0 0 1.1495 82.284 -83.0005)" gradientUnits="userSpaceOnUse">
					<stop  offset="0" style="stop-color:#717174"/>
					<stop  offset="0.6075" style="stop-color:#000000"/>
				</radialGradient>
				<polygon style="fill:url(#SVGID_00000150087656850582533870000008349833070692253612_);" points="408.139,149.158 
					69.456,-7.424 -27.861,33.597 -27.861,361.365 45.125,439.966 408.139,227.564 				"/>
				
					<radialGradient id="SVGID_00000013157545164927750590000013924921678486995881_" cx="38.7554" cy="316.56" r="407.9686" gradientTransform="matrix(1.1183 0 0 1.1495 82.284 -83.0005)" gradientUnits="userSpaceOnUse">
					<stop  offset="0" style="stop-color:#717174"/>
					<stop  offset="0.6075" style="stop-color:#000000"/>
				</radialGradient>
				<polygon style="fill:url(#SVGID_00000013157545164927750590000013924921678486995881_);" points="408.139,149.158 
					69.456,-7.424 -27.861,13.135 -27.861,91.978 408.139,170.315 				"/>
				
					<radialGradient id="SVGID_00000147215117115796860030000013751802052677175979_" cx="-242.0214" cy="469.5225" r="501.9851" gradientTransform="matrix(0.8584 -0.8288 0.8922 1.6745 -149.5756 -852.7867)" gradientUnits="userSpaceOnUse">
					<stop  offset="0" style="stop-color:#717174"/>
					<stop  offset="0.6075" style="stop-color:#000000"/>
				</radialGradient>
				<polygon style="fill:url(#SVGID_00000147215117115796860030000013751802052677175979_);" points="408.139,198.797 
					-27.861,286.35 -27.861,361.369 45.125,439.966 408.139,227.564 				"/>
			</g>
			<g>
				
					<radialGradient id="SVGID_00000020382386573840791360000001711571929558499457_" cx="94.2945" cy="-12.771" r="351.142" gradientTransform="matrix(1.1183 0 0 1.1495 82.284 -83.0005)" gradientUnits="userSpaceOnUse">
					<stop  offset="0" style="stop-color:#FFFFD4"/>
					<stop  offset="0.3441" style="stop-color:#FFEC00"/>
					<stop  offset="1" style="stop-color:#FF9200"/>
				</radialGradient>
				<polygon style="fill:url(#SVGID_00000020382386573840791360000001711571929558499457_);" points="-27.861,153.317 
					313.161,205.432 106.509,-0.876 -27.861,-32.331 				"/>
				
					<radialGradient id="SVGID_00000086664601277895623160000015231470958074035105_" cx="163.0337" cy="-98.9324" r="379.5522" gradientTransform="matrix(1.1183 0 0 1.1495 82.284 -83.0005)" gradientUnits="userSpaceOnUse">
					<stop  offset="0" style="stop-color:#FFFFD4"/>
					<stop  offset="0.3441" style="stop-color:#FFEC00"/>
					<stop  offset="1" style="stop-color:#FF9200"/>
				</radialGradient>
				<polygon style="fill:url(#SVGID_00000086664601277895623160000015231470958074035105_);" points="-27.861,-22.147 
					313.161,205.432 106.509,-0.876 -27.861,-48.878 				"/>
				
					<radialGradient id="SVGID_00000058548574396970065800000015332764305097357716_" cx="-27.6949" cy="112.1223" r="386.9319" gradientTransform="matrix(1.1183 0 0 1.1495 82.284 -83.0005)" gradientUnits="userSpaceOnUse">
					<stop  offset="0" style="stop-color:#FFFFD4"/>
					<stop  offset="0.3441" style="stop-color:#FFEC00"/>
					<stop  offset="1" style="stop-color:#FF9200"/>
				</radialGradient>
				<polygon style="fill:url(#SVGID_00000058548574396970065800000015332764305097357716_);" points="-27.861,81.294 
					-27.861,153.317 313.161,205.432 				"/>
			</g>
			<g>
				
					<radialGradient id="SVGID_00000124123684372056275960000004887271924066343554_" cx="-1732.6497" cy="-335.0093" r="140.7724" gradientTransform="matrix(-1.1183 0 0 -1.1495 -1568.2332 -155.5463)" gradientUnits="userSpaceOnUse">
					<stop  offset="0" style="stop-color:#FFFFD4"/>
					<stop  offset="0.3441" style="stop-color:#FFEC00"/>
					<stop  offset="1" style="stop-color:#FF9200"/>
				</radialGradient>
				<polygon style="fill:url(#SVGID_00000124123684372056275960000004887271924066343554_);" points="408.139,121.636 
					319.105,108.03 401.952,190.739 408.139,192.187 				"/>
				
					<radialGradient id="SVGID_00000018941375153206424120000017891749661522269348_" cx="-1705.0919" cy="-369.554" r="152.1647" gradientTransform="matrix(-1.1183 0 0 -1.1495 -1568.2332 -155.5463)" gradientUnits="userSpaceOnUse">
					<stop  offset="0" style="stop-color:#FFFFD4"/>
					<stop  offset="0.3441" style="stop-color:#FFEC00"/>
					<stop  offset="1" style="stop-color:#FF9200"/>
				</radialGradient>
				<polygon style="fill:url(#SVGID_00000018941375153206424120000017891749661522269348_);" points="408.139,167.446 
					319.105,108.03 401.952,190.739 408.139,192.949 				"/>
				
					<radialGradient id="SVGID_00000128472439018267618260000012781899468181079202_" cx="-1781.5555" cy="-284.9392" r="155.1211" gradientTransform="matrix(-1.1183 0 0 -1.1495 -1568.2332 -155.5463)" gradientUnits="userSpaceOnUse">
					<stop  offset="0" style="stop-color:#FFFFD4"/>
					<stop  offset="0.3441" style="stop-color:#FFEC00"/>
					<stop  offset="1" style="stop-color:#FF9200"/>
				</radialGradient>
				<polygon style="fill:url(#SVGID_00000128472439018267618260000012781899468181079202_);" points="408.139,121.636 
					319.105,108.03 408.139,140.439 				"/>
			</g>
			<g>
				<g>
					<polygon style="fill:#FFFFFF;" points="53.825,202.06 61.979,204.426 55.538,196.321 					"/>
				</g>
				<g>
					<polygon style="fill:#FFFFFF;" points="132.846,220.676 128.26,209.241 125.108,223.743 					"/>
				</g>
				<g>
					<polygon style="fill:#FFFFFF;" points="244.143,180.71 256.069,185.812 247.751,172.344 					"/>
				</g>
				<g>
					<polygon style="fill:#FFFFFF;" points="303.421,171.215 313.789,193.878 318.774,164.23 					"/>
				</g>
			</g>
		</g>
	</g>
	<g>
		<g>
			<path style="fill:#FFFFFF;" d="M34.813,223.24h1.344l3.647,17.278h-1.173l-0.896-4.778h-4.48l-0.917,4.778h-1.152L34.813,223.24z
				 M37.586,234.888l-2.09-10.239l-2.069,10.239H37.586z"/>
			<path style="fill:#FFFFFF;" d="M42.086,223.24h3.563c1.479,0,2.513,0.384,3.104,1.151c0.59,0.769,0.885,1.821,0.885,3.158
				c0,0.867-0.149,1.645-0.448,2.336c-0.299,0.689-0.825,1.127-1.579,1.311c0.896,0.271,1.521,0.811,1.877,1.621
				c0.355,0.811,0.534,1.7,0.534,2.667c0,1.55-0.267,2.776-0.8,3.68c-0.533,0.903-1.554,1.355-3.061,1.355h-4.074V223.24z
				 M46.16,230.814c0.882,0,1.501-0.292,1.856-0.875c0.355-0.583,0.533-1.379,0.533-2.389c0-1.096-0.217-1.932-0.65-2.507
				c-0.434-0.576-1.276-0.864-2.528-0.864h-2.133v6.635H46.16z M46.011,239.602c0.753,0,1.336-0.145,1.749-0.438
				c0.412-0.292,0.704-0.729,0.875-1.312c0.171-0.584,0.256-1.365,0.256-2.347c0-1.138-0.21-2.052-0.629-2.741
				c-0.42-0.689-1.113-1.035-2.08-1.035h-2.944v7.872H46.011z"/>
			<path style="fill:#FFFFFF;" d="M51.792,236.253l1.002-0.32c0.171,1.279,0.48,2.24,0.928,2.879
				c0.448,0.641,1.198,0.961,2.25,0.961c1.835,0,2.752-0.925,2.752-2.774c0-0.711-0.178-1.357-0.533-1.941
				c-0.356-0.582-0.925-1.266-1.706-2.047l-3.157-3.137c-1.01-1.01-1.515-2.104-1.515-3.285c0-1.123,0.345-1.994,1.035-2.612
				c0.69-0.618,1.611-0.929,2.763-0.929c1.237,0,2.189,0.331,2.858,0.992c0.668,0.662,1.052,1.775,1.152,3.338l-0.981,0.235
				c-0.1-1.266-0.373-2.186-0.821-2.763c-0.448-0.576-1.177-0.863-2.187-0.863c-0.825,0-1.49,0.209-1.994,0.629
				c-0.505,0.42-0.757,1.049-0.757,1.888c0,0.456,0.096,0.893,0.288,1.311c0.192,0.42,0.515,0.857,0.97,1.313l3.114,3.071
				c0.796,0.782,1.422,1.558,1.877,2.325c0.455,0.768,0.683,1.572,0.683,2.41c0,1.252-0.349,2.197-1.045,2.838
				c-0.697,0.64-1.635,0.959-2.815,0.959C53.406,240.732,52.019,239.239,51.792,236.253z"/>
			<path style="fill:#FFFFFF;" d="M64.42,224.179h-3.456v-0.938h7.978v0.938h-3.37v16.34H64.42V224.179z"/>
			<path style="fill:#FFFFFF;" d="M70.968,223.24h4.181c1.422,0,2.41,0.377,2.965,1.131c0.555,0.754,0.832,1.799,0.832,3.136
				c0,1.123-0.181,2.047-0.544,2.773c-0.363,0.725-1.027,1.166-1.995,1.322l2.773,8.916h-1.152l-2.688-8.703H72.12v8.703h-1.152
				V223.24z M75.106,230.919c1.038,0,1.749-0.279,2.133-0.842c0.384-0.562,0.576-1.418,0.576-2.57c0-1.166-0.196-2.016-0.587-2.549
				c-0.391-0.533-1.106-0.801-2.144-0.801H72.12v6.762H75.106z"/>
			<path style="fill:#FFFFFF;" d="M84.513,223.24h1.344l3.647,17.278h-1.173l-0.896-4.778h-4.48l-0.917,4.778h-1.152L84.513,223.24z
				 M87.286,234.888l-2.09-10.239l-2.069,10.239H87.286z"/>
			<path style="fill:#FFFFFF;" d="M92.341,239.378c-0.611-0.918-0.917-2.193-0.917-3.83v-7.338c0-1.635,0.313-2.904,0.938-3.807
				c0.625-0.903,1.713-1.355,3.264-1.355c1.436,0,2.453,0.416,3.05,1.248c0.597,0.832,0.896,2.037,0.896,3.616v0.874h-1.109v-0.874
				c0-1.323-0.206-2.304-0.619-2.944c-0.413-0.64-1.152-0.959-2.218-0.959c-1.166,0-1.962,0.341-2.389,1.023
				c-0.427,0.683-0.64,1.699-0.64,3.051v7.637c0,1.365,0.22,2.385,0.661,3.061c0.44,0.676,1.23,1.014,2.368,1.014
				c1.081,0,1.824-0.331,2.229-0.992c0.405-0.662,0.608-1.639,0.608-2.934v-1.045h1.109v0.854c0,1.621-0.291,2.873-0.874,3.754
				c-0.584,0.882-1.608,1.322-3.072,1.322C94.048,240.753,92.953,240.294,92.341,239.378z"/>
			<path style="fill:#FFFFFF;" d="M104.5,224.179h-3.455v-0.938h7.978v0.938h-3.37v16.34H104.5V224.179z"/>
		</g>
		<g>
			<path style="fill:#FFFFFF;" d="M30.514,244.86h0.586l1.825,7.767l1.706-7.767h0.576l-2.01,8.799h-0.554L30.514,244.86z"/>
			<path style="fill:#FFFFFF;" d="M36.271,244.86h3.042v0.478h-2.444v3.53h2.01v0.457h-2.01v3.867h2.477v0.467h-3.075V244.86z"/>
			<path style="fill:#FFFFFF;" d="M40.834,253.078c-0.312-0.468-0.467-1.117-0.467-1.95v-3.736c0-0.834,0.159-1.48,0.478-1.939
				c0.319-0.46,0.873-0.689,1.662-0.689c0.731,0,1.25,0.211,1.554,0.635c0.304,0.424,0.456,1.037,0.456,1.842v0.445h-0.565v-0.445
				c0-0.674-0.105-1.174-0.315-1.5c-0.21-0.325-0.586-0.488-1.13-0.488c-0.594,0-1,0.174-1.217,0.521
				c-0.217,0.348-0.326,0.865-0.326,1.553v3.89c0,0.695,0.112,1.215,0.337,1.56c0.224,0.344,0.626,0.516,1.206,0.516
				c0.55,0,0.929-0.168,1.135-0.506c0.207-0.336,0.31-0.834,0.31-1.493v-0.532h0.565v0.435c0,0.825-0.148,1.463-0.445,1.911
				c-0.297,0.449-0.818,0.674-1.564,0.674C41.703,253.778,41.146,253.545,40.834,253.078z"/>
			<path style="fill:#FFFFFF;" d="M47.026,245.338h-1.76v-0.478h4.063v0.478h-1.716v8.321h-0.587V245.338z"/>
			<path style="fill:#FFFFFF;" d="M50.66,253.089c-0.322-0.46-0.483-1.103-0.483-1.928v-3.846c0-0.811,0.165-1.439,0.495-1.885
				c0.329-0.445,0.889-0.668,1.678-0.668c0.782,0,1.34,0.225,1.673,0.673c0.333,0.449,0.5,1.075,0.5,1.88v3.855
				c0,0.826-0.162,1.467-0.483,1.924c-0.323,0.456-0.886,0.684-1.69,0.684C51.545,253.778,50.982,253.549,50.66,253.089z
				 M53.582,252.779c0.228-0.341,0.342-0.837,0.342-1.488v-4.064c0-0.651-0.114-1.143-0.342-1.476c-0.228-0.334-0.639-0.5-1.233-0.5
				c-0.594,0-1.005,0.166-1.233,0.5c-0.228,0.333-0.342,0.825-0.342,1.476v4.064c0,0.659,0.114,1.157,0.342,1.493
				c0.228,0.338,0.639,0.506,1.233,0.506C52.943,253.29,53.354,253.12,53.582,252.779z"/>
			<path style="fill:#FFFFFF;" d="M55.967,244.86h2.129c0.724,0,1.228,0.191,1.51,0.575c0.282,0.384,0.423,0.917,0.423,1.597
				c0,0.572-0.092,1.043-0.277,1.412c-0.185,0.369-0.523,0.594-1.016,0.674l1.412,4.541h-0.586l-1.369-4.432h-1.64v4.432h-0.586
				V244.86z M58.074,248.77c0.528,0,0.891-0.143,1.087-0.429c0.195-0.286,0.293-0.723,0.293-1.31c0-0.594-0.1-1.026-0.299-1.298
				s-0.563-0.407-1.091-0.407h-1.51v3.443H58.074z"/>
			<path style="fill:#FFFFFF;" d="M63.539,244.86h1.814c0.753,0,1.28,0.195,1.58,0.586c0.3,0.391,0.451,0.928,0.451,1.607
				c0,0.442-0.076,0.839-0.228,1.189c-0.152,0.352-0.42,0.574-0.804,0.669c0.456,0.138,0.775,0.413,0.956,0.825
				c0.181,0.413,0.271,0.865,0.271,1.357c0,0.79-0.136,1.415-0.407,1.875c-0.272,0.459-0.792,0.689-1.559,0.689h-2.075V244.86z
				 M65.613,248.716c0.449,0,0.764-0.148,0.945-0.445c0.181-0.297,0.271-0.702,0.271-1.217c0-0.557-0.11-0.982-0.332-1.275
				c-0.221-0.294-0.65-0.44-1.287-0.44h-1.087v3.378H65.613z M65.537,253.192c0.384,0,0.681-0.074,0.891-0.223
				c0.21-0.148,0.358-0.371,0.445-0.668c0.087-0.297,0.13-0.695,0.13-1.195c0-0.58-0.107-1.045-0.321-1.396
				c-0.213-0.351-0.566-0.526-1.059-0.526h-1.499v4.009H65.537z"/>
			<path style="fill:#FFFFFF;" d="M70.219,244.86h0.685l1.857,8.799h-0.597l-0.457-2.434h-2.281l-0.467,2.434h-0.586L70.219,244.86z
				 M71.631,250.791l-1.064-5.214l-1.054,5.214H71.631z"/>
			<path style="fill:#FFFFFF;" d="M74.206,253.078c-0.312-0.468-0.467-1.117-0.467-1.95v-3.736c0-0.834,0.159-1.48,0.478-1.939
				c0.319-0.46,0.873-0.689,1.662-0.689c0.731,0,1.25,0.211,1.554,0.635c0.304,0.424,0.456,1.037,0.456,1.842v0.445h-0.565v-0.445
				c0-0.674-0.105-1.174-0.315-1.5c-0.21-0.325-0.586-0.488-1.13-0.488c-0.594,0-0.999,0.174-1.217,0.521
				c-0.217,0.348-0.326,0.865-0.326,1.553v3.89c0,0.695,0.112,1.215,0.337,1.56c0.224,0.344,0.626,0.516,1.205,0.516
				c0.55,0,0.929-0.168,1.135-0.506c0.207-0.336,0.31-0.834,0.31-1.493v-0.532h0.565v0.435c0,0.825-0.148,1.463-0.445,1.911
				c-0.297,0.449-0.818,0.674-1.564,0.674C75.075,253.778,74.518,253.545,74.206,253.078z"/>
			<path style="fill:#FFFFFF;" d="M79.225,244.86h0.598v4.942l2.553-4.942h0.587l-1.858,3.726l2.303,5.073h-0.587l-2.075-4.563
				l-0.923,1.684v2.879h-0.598V244.86z"/>
			<path style="fill:#FFFFFF;" d="M84.363,253.083c-0.311-0.463-0.467-1.122-0.467-1.976v-3.737c0-0.84,0.158-1.484,0.473-1.934
				c0.315-0.448,0.871-0.673,1.668-0.673c0.731,0,1.253,0.213,1.564,0.641c0.312,0.428,0.467,1.05,0.467,1.868v0.304h-0.565v-0.336
				c0-0.682-0.107-1.183-0.321-1.505c-0.213-0.322-0.596-0.483-1.146-0.483c-0.601,0-1.008,0.178-1.222,0.532
				c-0.213,0.354-0.32,0.876-0.32,1.564v3.835c0,0.695,0.112,1.221,0.337,1.574c0.224,0.355,0.63,0.533,1.217,0.533
				c0.55,0,0.934-0.172,1.151-0.516c0.217-0.345,0.326-0.864,0.326-1.56v-1.292h-1.401v-0.457h1.955v4.193h-0.38l-0.087-0.988
				c-0.116,0.361-0.302,0.637-0.56,0.825c-0.257,0.189-0.607,0.282-1.048,0.282C85.222,253.778,84.675,253.547,84.363,253.083z"/>
			<path style="fill:#FFFFFF;" d="M89.621,244.86h2.129c0.724,0,1.228,0.191,1.51,0.575c0.282,0.384,0.423,0.917,0.423,1.597
				c0,0.572-0.092,1.043-0.277,1.412c-0.185,0.369-0.523,0.594-1.016,0.674l1.412,4.541h-0.587l-1.369-4.432h-1.64v4.432h-0.586
				V244.86z M91.729,248.77c0.528,0,0.891-0.143,1.087-0.429c0.195-0.286,0.293-0.723,0.293-1.31c0-0.594-0.1-1.026-0.299-1.298
				c-0.199-0.271-0.563-0.407-1.091-0.407h-1.51v3.443H91.729z"/>
			<path style="fill:#FFFFFF;" d="M95.438,253.089c-0.322-0.46-0.483-1.103-0.483-1.928v-3.846c0-0.811,0.165-1.439,0.495-1.885
				c0.329-0.445,0.889-0.668,1.678-0.668c0.782,0,1.34,0.225,1.673,0.673c0.333,0.449,0.5,1.075,0.5,1.88v3.855
				c0,0.826-0.162,1.467-0.483,1.924c-0.323,0.456-0.886,0.684-1.689,0.684C96.324,253.778,95.76,253.549,95.438,253.089z
				 M98.36,252.779c0.228-0.341,0.342-0.837,0.342-1.488v-4.064c0-0.651-0.114-1.143-0.342-1.476c-0.228-0.334-0.639-0.5-1.233-0.5
				c-0.594,0-1.005,0.166-1.233,0.5c-0.228,0.333-0.342,0.825-0.342,1.476v4.064c0,0.659,0.114,1.157,0.342,1.493
				c0.228,0.338,0.639,0.506,1.233,0.506C97.721,253.29,98.132,253.12,98.36,252.779z"/>
			<path style="fill:#FFFFFF;" d="M101.13,253.203c-0.33-0.384-0.494-0.92-0.494-1.608v-6.734h0.587v6.746
				c0,0.535,0.119,0.95,0.358,1.244c0.239,0.293,0.655,0.439,1.249,0.439c0.565,0,0.974-0.152,1.228-0.457
				c0.254-0.304,0.38-0.713,0.38-1.226v-6.746h0.576v6.734c0,0.674-0.17,1.206-0.511,1.598c-0.34,0.391-0.898,0.586-1.673,0.586
				C102.027,253.778,101.46,253.587,101.13,253.203z"/>
			<path style="fill:#FFFFFF;" d="M106.535,244.86h0.467l2.988,7.43v-7.43h0.521v8.799h-0.467l-2.987-7.441v7.441h-0.521V244.86z"/>
			<path style="fill:#FFFFFF;" d="M112.13,244.86h1.923c0.818,0,1.397,0.227,1.738,0.678c0.34,0.453,0.511,1.07,0.511,1.854v3.649
				c0,0.825-0.165,1.469-0.494,1.929c-0.33,0.459-0.896,0.689-1.7,0.689h-1.977V244.86z M114.074,253.192
				c0.449,0,0.793-0.096,1.032-0.288c0.239-0.192,0.398-0.447,0.478-0.767c0.08-0.318,0.119-0.705,0.119-1.162v-3.541
				c0-0.703-0.118-1.228-0.353-1.575c-0.235-0.348-0.668-0.521-1.298-0.521h-1.337v7.854H114.074z"/>
		</g>
	</g>
</g>
</svg>
